<svg xmlns="http://www.w3.org/2000/svg" width="512" height="512" viewBox="0 0 512 512">
  <g fill="#20539b" stroke="#173f78" stroke-width="2" stroke-linejoin="round" stroke-linecap="round">
    <path d="M82 136h62c9 0 16 5 20 13l42 91-48 55-76-141c-6-12-1-18 0-18z"/>
    <path d="M125 249c46-76 111-105 183-103 38 1 69 10 91 28-51-13-96-9-134 6-54 21-91 57-120 103l-20-12z"/>
    <path d="M202 237c-13 11-27 26-42 45l32 20 26-32 18 73 22-44c31 3 56-3 74-22 13-14 20-35 19-57-1-20-8-36-20-48-34-5-65-2-91 8-15 6-27 15-38 25zm73-31c22 0 40 17 40 38s-18 38-40 38-40-17-40-38 18-38 40-38z"/>
    <circle cx="288" cy="226" r="10" fill="#fff" stroke="none"/>
    <path d="M299 181c38-8 70-5 99 8l-83 222c-4 11-12 17-24 17h-56c-11 0-19-5-24-15l-53-104 45-57 48 96 27-55c17 2 35 0 50-7 18-8 32-22 40-40 9-21 9-43 2-65z"/>
    <path d="M353 124c12 3 23 11 30 23 7 12 9 25 6 38" fill="none" stroke-width="14"/>
    <path d="M363 89c24 5 44 19 56 40 12 20 15 43 10 66" fill="none" stroke-width="14"/>
    <path d="M375 52c35 7 64 27 82 57 18 30 23 64 16 97" fill="none" stroke-width="14"/>
  </g>
</svg>
